<svg width="148" height="171" viewBox="0 0 148 171" fill="none" xmlns="http://www.w3.org/2000/svg">
<path fill-rule="evenodd" clip-rule="evenodd" d="M81.0202 20.5384L67.0287 0V87.7087H67.259V171L81.2105 150.52V83.542H81.0202V20.5384Z" fill="white" fill-opacity="0.1"/>
<path fill-rule="evenodd" clip-rule="evenodd" d="M103.348 30.347L89.3562 9.80859V97.5173H89.5223V161.191L103.474 140.712V73.7334H103.348V30.347Z" fill="white" fill-opacity="0.1"/>
<path fill-rule="evenodd" clip-rule="evenodd" d="M58.7583 30.3475L44.7667 9.80908V97.5178H44.9328V161.191L58.8844 140.712V73.7335H58.7583V30.3475Z" fill="white" fill-opacity="0.1"/>
<path fill-rule="evenodd" clip-rule="evenodd" d="M125.671 45.8033L111.68 25.2649V112.974H111.783V145.735L125.735 125.256V58.2773H125.671V45.8033Z" fill="white" fill-opacity="0.1"/>
<path fill-rule="evenodd" clip-rule="evenodd" d="M36.562 45.8035L22.5704 25.2651V112.974H22.6742V145.735L36.6257 125.256V58.2774H36.562V45.8035Z" fill="white" fill-opacity="0.1"/>
<path fill-rule="evenodd" clip-rule="evenodd" d="M147.998 56.3347L134.006 37.4216V110.239H134.048V133.578L148 114.719V67.0577L147.998 67.0525V56.3347Z" fill="white" fill-opacity="0.1"/>
<path fill-rule="evenodd" clip-rule="evenodd" d="M14.4232 56.3347L0.431641 37.4216V110.239H0.473764V133.578L14.4253 114.719V67.0577L14.4232 67.0529V56.3347Z" fill="white" fill-opacity="0.1"/>
</svg>
