<svg width="177" height="178" viewBox="0 0 177 178" fill="none" xmlns="http://www.w3.org/2000/svg">
<circle cx="88.5" cy="89" r="87.91" stroke="white" stroke-opacity="0.3" stroke-width="1.18"/>
<path d="M123.31 89C123.31 113.383 119.356 135.43 112.984 151.36C109.797 159.326 106.018 165.734 101.851 170.14C97.6852 174.545 93.1735 176.91 88.5003 176.91C83.8271 176.91 79.3154 174.545 75.1497 170.14C70.9828 165.734 67.2031 159.326 64.0165 151.36C57.6446 135.43 53.6903 113.383 53.6903 89C53.6903 64.6172 57.6446 42.57 64.0165 26.6402C67.2031 18.6736 70.9828 12.2663 75.1497 7.86016C79.3154 3.45531 83.8271 1.09 88.5003 1.09C93.1735 1.09 97.6852 3.45531 101.851 7.86016C106.018 12.2663 109.797 18.6736 112.984 26.6402C119.356 42.57 123.31 64.6172 123.31 89Z" stroke="white" stroke-opacity="0.3" stroke-width="1.18"/>
<path d="M123.31 89.0003C123.31 110.932 119.358 130.76 112.993 145.082C109.81 152.244 106.035 158.003 101.873 161.964C97.7139 165.922 93.196 168.06 88.5003 168.06C83.8045 168.06 79.2866 165.922 75.1277 161.964C70.9658 158.003 67.1909 152.244 64.0078 145.082C57.6424 130.76 53.6903 110.932 53.6903 89.0003C53.6903 67.0684 57.6424 47.2411 64.0078 32.9189C67.1909 25.7571 70.9658 19.9978 75.1277 16.037C79.2866 12.0791 83.8045 9.94034 88.5003 9.94034C93.196 9.94034 97.7139 12.0791 101.873 16.037C106.035 19.9978 109.81 25.7571 112.993 32.9189C119.358 47.2411 123.31 67.0684 123.31 89.0003Z" stroke="white" stroke-opacity="0.3" stroke-width="1.18"/>
<path d="M123.31 88.9999C123.31 108.479 119.361 126.085 113.004 138.799C106.629 151.549 97.9319 159.21 88.5003 159.21C79.0687 159.21 70.3712 151.549 63.9964 138.799C57.6393 126.085 53.6903 108.479 53.6903 88.9999C53.6903 69.5208 57.6393 51.9149 63.9964 39.2006C70.3712 26.4511 79.0687 18.79 88.5003 18.79C97.9319 18.79 106.629 26.4511 113.004 39.2006C119.361 51.9149 123.31 69.5208 123.31 88.9999Z" stroke="white" stroke-opacity="0.3" stroke-width="1.18"/>
<path d="M123.31 89C123.31 106.023 119.366 121.406 113.02 132.513C106.664 143.636 97.9726 150.36 88.5003 150.36C79.0279 150.36 70.337 143.636 63.981 132.513C57.6344 121.406 53.6903 106.023 53.6903 89C53.6903 71.9767 57.6344 56.5939 63.981 45.4875C70.337 34.3644 79.0279 27.64 88.5003 27.64C97.9726 27.64 106.664 34.3644 113.02 45.4875C119.366 56.5939 123.31 71.9767 123.31 89Z" stroke="white" stroke-opacity="0.3" stroke-width="1.18"/>
<path d="M123.31 88.9997C123.31 103.563 119.374 116.72 113.041 126.22C106.705 135.723 98.0171 141.51 88.5003 141.51C78.9835 141.51 70.2954 135.723 63.9596 126.22C57.6265 116.72 53.6903 103.563 53.6903 88.9997C53.6903 74.4367 57.6265 61.2792 63.9596 51.7796C70.2954 42.2758 78.9835 36.4897 88.5003 36.4897C98.0171 36.4897 106.705 42.2758 113.041 51.7796C119.374 61.2792 123.31 74.4367 123.31 88.9997Z" stroke="white" stroke-opacity="0.3" stroke-width="1.18"/>
<path opacity="0.75" d="M123.31 89C123.31 113.242 107.609 132.66 88.5003 132.66C69.3913 132.66 53.6903 113.242 53.6903 89C53.6903 64.7576 69.3913 45.34 88.5003 45.34C107.609 45.34 123.31 64.7576 123.31 89Z" stroke="white" stroke-opacity="0.3" stroke-width="1.18"/>
<circle cx="88.5003" cy="89.0003" r="34.81" stroke="white" stroke-opacity="0.3" stroke-width="1.18"/>
<path d="M123.31 89C123.31 96.1042 119.472 102.581 113.178 107.302C106.883 112.023 98.1604 114.96 88.5003 114.96C78.8402 114.96 70.1173 112.023 63.8227 107.302C57.5283 102.581 53.6903 96.1042 53.6903 89C53.6903 81.8957 57.5283 75.4191 63.8227 70.6983C70.1173 65.9773 78.8402 63.04 88.5003 63.04C98.1604 63.04 106.883 65.9773 113.178 70.6983C119.472 75.4191 123.31 81.8957 123.31 89Z" stroke="white" stroke-opacity="0.3" stroke-width="1.18"/>
<path d="M123.31 89C123.31 93.5439 119.611 97.8164 113.268 100.988C106.96 104.142 98.204 106.11 88.5003 106.11C78.7966 106.11 70.0407 104.142 63.7326 100.988C57.3891 97.8164 53.6903 93.5439 53.6903 89C53.6903 84.4562 57.3891 80.1837 63.7326 77.012C70.0407 73.8579 78.7966 71.89 88.5003 71.89C98.204 71.89 106.96 73.8579 113.268 77.012C119.611 80.1837 123.31 84.4562 123.31 89Z" stroke="white" stroke-opacity="0.3" stroke-width="1.18"/>
</svg>
